<mxfile host="app.diagrams.net" agent="Mozilla/5.0 (Windows NT 10.0; Win64; x64) AppleWebKit/537.36 (KHTML, like Gecko) Chrome/130.0.0.0 Safari/537.36 Edg/130.0.0.0" version="24.8.4">
  <diagram name="第 1 页" id="vwe1aWbab0xZmEjinILW">
    <mxGraphModel dx="946" dy="601" grid="1" gridSize="10" guides="1" tooltips="1" connect="1" arrows="1" fold="1" page="1" pageScale="1" pageWidth="827" pageHeight="1169" math="0" shadow="0">
      <root>
        <mxCell id="0" />
        <mxCell id="1" parent="0" />
        <mxCell id="Wh5OmNwA7AG11i1vEpEg-3" value="" style="edgeStyle=orthogonalEdgeStyle;rounded=0;orthogonalLoop=1;jettySize=auto;html=1;" edge="1" parent="1" source="Wh5OmNwA7AG11i1vEpEg-1" target="Wh5OmNwA7AG11i1vEpEg-2">
          <mxGeometry relative="1" as="geometry" />
        </mxCell>
        <mxCell id="Wh5OmNwA7AG11i1vEpEg-1" value="query向量化" style="rounded=0;whiteSpace=wrap;html=1;" vertex="1" parent="1">
          <mxGeometry x="160" y="80" width="120" height="60" as="geometry" />
        </mxCell>
        <mxCell id="Wh5OmNwA7AG11i1vEpEg-5" value="" style="edgeStyle=orthogonalEdgeStyle;rounded=0;orthogonalLoop=1;jettySize=auto;html=1;" edge="1" parent="1" source="Wh5OmNwA7AG11i1vEpEg-2" target="Wh5OmNwA7AG11i1vEpEg-4">
          <mxGeometry relative="1" as="geometry" />
        </mxCell>
        <mxCell id="Wh5OmNwA7AG11i1vEpEg-2" value="根据过滤条件查询Milvus得到初始召回结果(查询1次Milvus)" style="rounded=0;whiteSpace=wrap;html=1;" vertex="1" parent="1">
          <mxGeometry x="160" y="220" width="120" height="60" as="geometry" />
        </mxCell>
        <mxCell id="Wh5OmNwA7AG11i1vEpEg-7" value="" style="edgeStyle=orthogonalEdgeStyle;rounded=0;orthogonalLoop=1;jettySize=auto;html=1;" edge="1" parent="1" source="Wh5OmNwA7AG11i1vEpEg-4" target="Wh5OmNwA7AG11i1vEpEg-6">
          <mxGeometry relative="1" as="geometry" />
        </mxCell>
        <mxCell id="Wh5OmNwA7AG11i1vEpEg-4" value="根据sku_id去重得到image_id集合作为过滤条件" style="rounded=0;whiteSpace=wrap;html=1;" vertex="1" parent="1">
          <mxGeometry x="160" y="360" width="120" height="60" as="geometry" />
        </mxCell>
        <mxCell id="Wh5OmNwA7AG11i1vEpEg-9" value="" style="edgeStyle=orthogonalEdgeStyle;rounded=0;orthogonalLoop=1;jettySize=auto;html=1;" edge="1" parent="1" source="Wh5OmNwA7AG11i1vEpEg-6" target="Wh5OmNwA7AG11i1vEpEg-8">
          <mxGeometry relative="1" as="geometry" />
        </mxCell>
        <mxCell id="Wh5OmNwA7AG11i1vEpEg-6" value="计算query与召回结果索引字段的相似度(查询n次Milvus)" style="rounded=0;whiteSpace=wrap;html=1;" vertex="1" parent="1">
          <mxGeometry x="160" y="500" width="120" height="60" as="geometry" />
        </mxCell>
        <mxCell id="Wh5OmNwA7AG11i1vEpEg-11" value="" style="edgeStyle=orthogonalEdgeStyle;rounded=0;orthogonalLoop=1;jettySize=auto;html=1;" edge="1" parent="1" source="Wh5OmNwA7AG11i1vEpEg-8" target="Wh5OmNwA7AG11i1vEpEg-10">
          <mxGeometry relative="1" as="geometry" />
        </mxCell>
        <mxCell id="Wh5OmNwA7AG11i1vEpEg-8" value="对sku_id排序并对spu_id去重" style="rounded=0;whiteSpace=wrap;html=1;" vertex="1" parent="1">
          <mxGeometry x="160" y="640" width="120" height="60" as="geometry" />
        </mxCell>
        <mxCell id="Wh5OmNwA7AG11i1vEpEg-10" value="计算召回结果的得分并排序" style="rounded=0;whiteSpace=wrap;html=1;" vertex="1" parent="1">
          <mxGeometry x="160" y="780" width="120" height="60" as="geometry" />
        </mxCell>
      </root>
    </mxGraphModel>
  </diagram>
</mxfile>
